<svg width="49" height="39" viewBox="0 0 49 39" fill="none" xmlns="http://www.w3.org/2000/svg">
<path d="M48.4761 19.3909C48.4761 14.2481 46.4331 9.31594 42.7966 5.67945C39.1601 2.04296 34.228 6.74394e-07 29.0852 0C23.9425 -6.74392e-07 19.0104 2.04296 15.3739 5.67945C11.7374 9.31594 9.6944 14.2481 9.6944 19.3909H15.7541C17.7621 19.3909 19.3281 17.7081 20.0636 15.8396C20.5465 14.6129 21.2792 13.4855 22.2295 12.5351C24.0477 10.7169 26.5139 9.69543 29.0852 9.69543C31.6566 9.69543 34.1227 10.7169 35.941 12.5351C37.7592 14.3534 38.7806 16.8195 38.7806 19.3909H48.4761Z" fill="white"/>
<path d="M37.3056 26.8114C38.2801 24.4588 38.7818 21.9373 38.7818 19.3909H48.4761C48.4761 30.1001 39.7945 38.7816 29.0853 38.7816C27.4081 38.7816 25.7806 38.5688 24.2286 38.1685C25.1068 37.9423 25.9699 37.6541 26.8114 37.3056C29.164 36.3311 31.3016 34.9029 33.1023 33.1023C34.9029 31.3016 36.3313 29.164 37.3056 26.8114Z" fill="white"/>
<path d="M0 19.3907C-3.64291e-07 21.9372 0.501559 24.4587 1.47604 26.8114C2.45053 29.164 3.87884 31.3016 5.67945 33.1022C7.48005 34.9027 9.61769 36.3311 11.9703 37.3056C14.3229 38.2801 16.8444 38.7816 19.3909 38.7816C21.9373 38.7816 24.4588 38.2801 26.8114 37.3056C29.164 36.3311 31.3016 34.9027 33.1023 33.1022C34.9029 31.3016 36.3311 29.164 37.3056 26.8114C38.2801 24.4587 38.7818 21.9372 38.7818 19.3907H32.722C30.714 19.3907 29.148 21.0735 28.4125 22.9419C28.3916 22.9951 28.3701 23.0481 28.3483 23.1011C27.861 24.2774 27.1469 25.3462 26.2465 26.2465C25.3463 27.1467 24.2774 27.861 23.1011 28.3482C21.9249 28.8355 20.6641 29.0862 19.3909 29.0862C18.1176 29.0862 16.8569 28.8355 15.6806 28.3482C14.5043 27.861 13.4355 27.1467 12.5351 26.2465C11.6348 25.3462 10.9207 24.2774 10.4334 23.1011C9.9462 21.9247 9.69543 20.664 9.69543 19.3907H0Z" fill="#0551F3"/>
<path d="M0.00189209 19.3909C0.00189209 8.68155 8.68345 0 19.3927 0C21.0694 0 22.6964 0.212808 24.2483 0.612904C20.9184 1.47071 17.8467 3.20669 15.3738 5.67946C11.7373 9.31591 9.69437 14.2481 9.69437 19.3909H0.00189209Z" fill="#0551F3"/>
</svg>
