<svg width="200" height="40" viewBox="0 0 200 40" fill="none" xmlns="http://www.w3.org/2000/svg">
<g clip-path="url(#clip0_3_39)">
<path d="M66.1286 20H62.3666L56.0746 10.452V20H52.3126V4.446H56.0746L62.3666 14.082V4.446H66.1286V20ZM80.3867 13.532C80.3867 13.84 80.35 14.1773 80.2767 14.544H71.7627C71.8067 15.468 72.0414 16.1353 72.4667 16.546C72.892 16.942 73.4347 17.14 74.0947 17.14C74.652 17.14 75.114 17.0007 75.4807 16.722C75.8474 16.4433 76.0894 16.084 76.2067 15.644H80.1887C80.0274 16.5093 79.6754 17.2867 79.1327 17.976C78.59 18.6507 77.9007 19.186 77.0647 19.582C76.2287 19.9633 75.2974 20.154 74.2707 20.154C73.068 20.154 71.9974 19.9047 71.0587 19.406C70.1347 18.8927 69.4087 18.1593 68.8807 17.206C68.3527 16.2527 68.0887 15.138 68.0887 13.862C68.0887 12.5713 68.3454 11.4567 68.8587 10.518C69.3867 9.56467 70.12 8.83867 71.0587 8.34C71.9974 7.82667 73.068 7.57 74.2707 7.57C75.488 7.57 76.5587 7.81933 77.4827 8.318C78.4067 8.81667 79.118 9.52067 79.6167 10.43C80.13 11.3247 80.3867 12.3587 80.3867 13.532ZM76.5807 12.96C76.5954 12.1533 76.3754 11.552 75.9207 11.156C75.4807 10.7453 74.9307 10.54 74.2707 10.54C73.5814 10.54 73.0094 10.7453 72.5547 11.156C72.1 11.5667 71.8434 12.168 71.7847 12.96H76.5807ZM90.0258 20L87.5178 16.502L85.4718 20H81.3358L85.4058 13.598L81.1818 7.724H85.4058L87.8918 11.178L89.9378 7.724H94.0738L89.9158 13.972L94.2498 20H90.0258ZM102.62 16.766V20H100.926C99.4888 20 98.3668 19.648 97.5601 18.944C96.7681 18.2253 96.3721 17.0447 96.3721 15.402V10.892H94.7221V7.724H96.3721V4.71H100.134V7.724H102.598V10.892H100.134V15.468C100.134 15.952 100.229 16.2893 100.42 16.48C100.625 16.6707 100.963 16.766 101.432 16.766H102.62ZM125.877 4.446L122.159 20H117.495L115.009 9.594L112.501 20H107.837L104.119 4.446H108.211L110.213 15.71L112.941 4.446H117.055L119.783 15.71L121.807 4.446H125.877ZM132.516 7.57C133.454 7.57 134.261 7.78267 134.936 8.208C135.61 8.63333 136.109 9.21267 136.432 9.946V7.724H140.172V20H136.432V17.778C136.109 18.5113 135.61 19.0907 134.936 19.516C134.261 19.9413 133.454 20.154 132.516 20.154C131.504 20.154 130.594 19.9047 129.788 19.406C128.996 18.8927 128.365 18.1593 127.896 17.206C127.441 16.2527 127.214 15.138 127.214 13.862C127.214 12.5713 127.441 11.4567 127.896 10.518C128.365 9.56467 128.996 8.83867 129.788 8.34C130.594 7.82667 131.504 7.57 132.516 7.57ZM133.726 10.87C132.919 10.87 132.266 11.134 131.768 11.662C131.284 12.19 131.042 12.9233 131.042 13.862C131.042 14.8007 131.284 15.534 131.768 16.062C132.266 16.59 132.919 16.854 133.726 16.854C134.518 16.854 135.163 16.5827 135.662 16.04C136.175 15.4973 136.432 14.7713 136.432 13.862C136.432 12.938 136.175 12.212 135.662 11.684C135.163 11.1413 134.518 10.87 133.726 10.87ZM148.438 16.326L151.1 7.724H155.104L150.748 20H146.084L141.728 7.724H145.732L148.438 16.326ZM168.322 13.532C168.322 13.84 168.286 14.1773 168.212 14.544H159.698C159.742 15.468 159.977 16.1353 160.402 16.546C160.828 16.942 161.37 17.14 162.03 17.14C162.588 17.14 163.05 17.0007 163.416 16.722C163.783 16.4433 164.025 16.084 164.142 15.644H168.124C167.963 16.5093 167.611 17.2867 167.068 17.976C166.526 18.6507 165.836 19.186 165 19.582C164.164 19.9633 163.233 20.154 162.206 20.154C161.004 20.154 159.933 19.9047 158.994 19.406C158.07 18.8927 157.344 18.1593 156.816 17.206C156.288 16.2527 156.024 15.138 156.024 13.862C156.024 12.5713 156.281 11.4567 156.794 10.518C157.322 9.56467 158.056 8.83867 158.994 8.34C159.933 7.82667 161.004 7.57 162.206 7.57C163.424 7.57 164.494 7.81933 165.418 8.318C166.342 8.81667 167.054 9.52067 167.552 10.43C168.066 11.3247 168.322 12.3587 168.322 13.532ZM164.516 12.96C164.531 12.1533 164.311 11.552 163.856 11.156C163.416 10.7453 162.866 10.54 162.206 10.54C161.517 10.54 160.945 10.7453 160.49 11.156C160.036 11.5667 159.779 12.168 159.72 12.96H164.516ZM82.9134 30.2727C82.8452 29.697 82.5687 29.25 82.0838 28.9318C81.599 28.6136 81.0043 28.4545 80.2997 28.4545C79.7846 28.4545 79.3338 28.5379 78.9474 28.7045C78.5649 28.8712 78.2656 29.1004 78.0497 29.392C77.8376 29.6837 77.7315 30.0152 77.7315 30.3864C77.7315 30.697 77.8054 30.964 77.9531 31.1875C78.1046 31.4072 78.2978 31.5909 78.5327 31.7386C78.7675 31.8826 79.0137 32.0019 79.2713 32.0966C79.5289 32.1875 79.7656 32.2614 79.9815 32.3182L81.1634 32.6364C81.4664 32.7159 81.8035 32.8258 82.1747 32.9659C82.5497 33.1061 82.9077 33.2973 83.2486 33.5398C83.5933 33.7784 83.8774 34.0852 84.1009 34.4602C84.3243 34.8352 84.4361 35.2955 84.4361 35.8409C84.4361 36.4697 84.2713 37.0379 83.9418 37.5455C83.616 38.053 83.1387 38.4564 82.5099 38.7557C81.8849 39.0549 81.1255 39.2045 80.2315 39.2045C79.3982 39.2045 78.6766 39.0701 78.0668 38.8011C77.4607 38.5322 76.9834 38.1572 76.6349 37.6761C76.2902 37.1951 76.0952 36.6364 76.0497 36H77.5043C77.5421 36.4394 77.6899 36.803 77.9474 37.0909C78.2088 37.375 78.5384 37.5871 78.9361 37.7273C79.3376 37.8636 79.7694 37.9318 80.2315 37.9318C80.7694 37.9318 81.2524 37.8447 81.6804 37.6705C82.1084 37.4924 82.4474 37.2462 82.6974 36.9318C82.9474 36.6136 83.0724 36.2424 83.0724 35.8182C83.0724 35.4318 82.9645 35.1174 82.7486 34.875C82.5327 34.6326 82.2486 34.4356 81.8963 34.2841C81.544 34.1326 81.1634 34 80.7543 33.8864L79.3224 33.4773C78.4134 33.2159 77.6937 32.8428 77.1634 32.358C76.633 31.8731 76.3679 31.2386 76.3679 30.4545C76.3679 29.803 76.544 29.2348 76.8963 28.75C77.2524 28.2614 77.7296 27.8826 78.3281 27.6136C78.9304 27.3409 79.6027 27.2045 80.3452 27.2045C81.0952 27.2045 81.7618 27.339 82.3452 27.608C82.9285 27.8731 83.3906 28.2367 83.7315 28.6989C84.0762 29.161 84.258 29.6856 84.277 30.2727H82.9134ZM90.1165 39.1818C89.3286 39.1818 88.6373 38.9943 88.0426 38.6193C87.4517 38.2443 86.9896 37.7197 86.6562 37.0455C86.3267 36.3712 86.1619 35.5833 86.1619 34.6818C86.1619 33.7727 86.3267 32.9792 86.6562 32.3011C86.9896 31.6231 87.4517 31.0966 88.0426 30.7216C88.6373 30.3466 89.3286 30.1591 90.1165 30.1591C90.9044 30.1591 91.5938 30.3466 92.1847 30.7216C92.7794 31.0966 93.2415 31.6231 93.571 32.3011C93.9044 32.9792 94.071 33.7727 94.071 34.6818C94.071 35.5833 93.9044 36.3712 93.571 37.0455C93.2415 37.7197 92.7794 38.2443 92.1847 38.6193C91.5938 38.9943 90.9044 39.1818 90.1165 39.1818ZM90.1165 37.9773C90.715 37.9773 91.2074 37.8239 91.5938 37.517C91.9801 37.2102 92.2661 36.8068 92.4517 36.3068C92.6373 35.8068 92.7301 35.2652 92.7301 34.6818C92.7301 34.0985 92.6373 33.5549 92.4517 33.0511C92.2661 32.5473 91.9801 32.1402 91.5938 31.8295C91.2074 31.5189 90.715 31.3636 90.1165 31.3636C89.518 31.3636 89.0256 31.5189 88.6392 31.8295C88.2528 32.1402 87.9669 32.5473 87.7812 33.0511C87.5956 33.5549 87.5028 34.0985 87.5028 34.6818C87.5028 35.2652 87.5956 35.8068 87.7812 36.3068C87.9669 36.8068 88.2528 37.2102 88.6392 37.517C89.0256 37.8239 89.518 37.9773 90.1165 37.9773ZM97.4588 27.3636V39H96.1179V27.3636H97.4588ZM105.415 35.4318V30.2727H106.756V39H105.415V37.5227H105.324C105.119 37.9659 104.801 38.3428 104.369 38.6534C103.938 38.9602 103.392 39.1136 102.733 39.1136C102.188 39.1136 101.703 38.9943 101.278 38.7557C100.854 38.5133 100.521 38.1496 100.278 37.6648C100.036 37.1761 99.9148 36.5606 99.9148 35.8182V30.2727H101.256V35.7273C101.256 36.3636 101.434 36.8712 101.79 37.25C102.15 37.6288 102.608 37.8182 103.165 37.8182C103.498 37.8182 103.837 37.733 104.182 37.5625C104.53 37.392 104.822 37.1307 105.057 36.7784C105.295 36.4261 105.415 35.9773 105.415 35.4318ZM113.007 30.2727V31.4091H108.484V30.2727H113.007ZM109.803 28.1818H111.143V36.5C111.143 36.8788 111.198 37.1629 111.308 37.3523C111.422 37.5379 111.566 37.6629 111.74 37.7273C111.918 37.7879 112.106 37.8182 112.303 37.8182C112.45 37.8182 112.571 37.8106 112.666 37.7955C112.761 37.7765 112.837 37.7614 112.893 37.75L113.166 38.9545C113.075 38.9886 112.948 39.0227 112.786 39.0568C112.623 39.0947 112.416 39.1136 112.166 39.1136C111.787 39.1136 111.416 39.0322 111.053 38.8693C110.693 38.7064 110.393 38.4583 110.155 38.125C109.92 37.7917 109.803 37.3712 109.803 36.8636V28.1818ZM115.024 39V30.2727H116.365V39H115.024ZM115.706 28.8182C115.445 28.8182 115.219 28.7292 115.03 28.5511C114.844 28.3731 114.751 28.1591 114.751 27.9091C114.751 27.6591 114.844 27.4451 115.03 27.267C115.219 27.089 115.445 27 115.706 27C115.967 27 116.191 27.089 116.376 27.267C116.566 27.4451 116.661 27.6591 116.661 27.9091C116.661 28.1591 116.566 28.3731 116.376 28.5511C116.191 28.7292 115.967 28.8182 115.706 28.8182ZM122.366 39.1818C121.579 39.1818 120.887 38.9943 120.293 38.6193C119.702 38.2443 119.24 37.7197 118.906 37.0455C118.577 36.3712 118.412 35.5833 118.412 34.6818C118.412 33.7727 118.577 32.9792 118.906 32.3011C119.24 31.6231 119.702 31.0966 120.293 30.7216C120.887 30.3466 121.579 30.1591 122.366 30.1591C123.154 30.1591 123.844 30.3466 124.435 30.7216C125.029 31.0966 125.491 31.6231 125.821 32.3011C126.154 32.9792 126.321 33.7727 126.321 34.6818C126.321 35.5833 126.154 36.3712 125.821 37.0455C125.491 37.7197 125.029 38.2443 124.435 38.6193C123.844 38.9943 123.154 39.1818 122.366 39.1818ZM122.366 37.9773C122.965 37.9773 123.457 37.8239 123.844 37.517C124.23 37.2102 124.516 36.8068 124.702 36.3068C124.887 35.8068 124.98 35.2652 124.98 34.6818C124.98 34.0985 124.887 33.5549 124.702 33.0511C124.516 32.5473 124.23 32.1402 123.844 31.8295C123.457 31.5189 122.965 31.3636 122.366 31.3636C121.768 31.3636 121.276 31.5189 120.889 31.8295C120.503 32.1402 120.217 32.5473 120.031 33.0511C119.846 33.5549 119.753 34.0985 119.753 34.6818C119.753 35.2652 119.846 35.8068 120.031 36.3068C120.217 36.8068 120.503 37.2102 120.889 37.517C121.276 37.8239 121.768 37.9773 122.366 37.9773ZM129.709 33.75V39H128.368V30.2727H129.663V31.6364H129.777C129.982 31.1932 130.292 30.8371 130.709 30.5682C131.125 30.2955 131.663 30.1591 132.322 30.1591C132.913 30.1591 133.43 30.2803 133.874 30.5227C134.317 30.7614 134.661 31.125 134.908 31.6136C135.154 32.0985 135.277 32.7121 135.277 33.4545V39H133.936V33.5455C133.936 32.8598 133.758 32.3258 133.402 31.9432C133.046 31.5568 132.557 31.3636 131.936 31.3636C131.508 31.3636 131.125 31.4564 130.788 31.642C130.455 31.8277 130.192 32.0985 129.999 32.4545C129.805 32.8106 129.709 33.2424 129.709 33.75ZM143.909 32.2273L142.705 32.5682C142.629 32.3674 142.517 32.1723 142.369 31.983C142.225 31.7898 142.028 31.6307 141.778 31.5057C141.528 31.3807 141.208 31.3182 140.818 31.3182C140.284 31.3182 139.839 31.4413 139.483 31.6875C139.131 31.9299 138.955 32.2386 138.955 32.6136C138.955 32.947 139.076 33.2102 139.318 33.4034C139.561 33.5966 139.939 33.7576 140.455 33.8864L141.75 34.2045C142.53 34.3939 143.112 34.6837 143.494 35.0739C143.877 35.4602 144.068 35.9583 144.068 36.5682C144.068 37.0682 143.924 37.5152 143.636 37.9091C143.352 38.303 142.955 38.6136 142.443 38.8409C141.932 39.0682 141.337 39.1818 140.659 39.1818C139.769 39.1818 139.032 38.9886 138.449 38.6023C137.866 38.2159 137.496 37.6515 137.341 36.9091L138.614 36.5909C138.735 37.0606 138.964 37.4129 139.301 37.6477C139.642 37.8826 140.087 38 140.636 38C141.261 38 141.758 37.8674 142.125 37.6023C142.496 37.3333 142.682 37.0114 142.682 36.6364C142.682 36.3333 142.576 36.0795 142.364 35.875C142.152 35.6667 141.826 35.5114 141.386 35.4091L139.932 35.0682C139.133 34.8788 138.545 34.5852 138.17 34.1875C137.799 33.786 137.614 33.2841 137.614 32.6818C137.614 32.1894 137.752 31.7538 138.028 31.375C138.309 30.9962 138.689 30.6989 139.17 30.483C139.655 30.267 140.205 30.1591 140.818 30.1591C141.682 30.1591 142.36 30.3485 142.852 30.7273C143.348 31.1061 143.701 31.6061 143.909 32.2273Z" fill="white"/>
<path d="M49.4761 20.3909C49.4761 15.2481 47.4331 10.3159 43.7966 6.67945C40.1601 3.04296 35.228 1 30.0852 1C24.9425 0.999999 20.0104 3.04296 16.3739 6.67945C12.7374 10.3159 10.6944 15.2481 10.6944 20.3909H16.7541C18.7621 20.3909 20.3281 18.7081 21.0636 16.8396C21.5465 15.6129 22.2792 14.4855 23.2295 13.5351C25.0477 11.7169 27.5139 10.6954 30.0852 10.6954C32.6566 10.6954 35.1227 11.7169 36.941 13.5351C38.7592 15.3534 39.7806 17.8195 39.7806 20.3909H49.4761Z" fill="white"/>
<path d="M38.3056 27.8114C39.2801 25.4588 39.7818 22.9373 39.7818 20.3909H49.4761C49.4761 31.1001 40.7945 39.7816 30.0853 39.7816C28.4081 39.7816 26.7806 39.5688 25.2286 39.1685C26.1068 38.9423 26.9699 38.6541 27.8114 38.3056C30.164 37.3311 32.3016 35.9029 34.1023 34.1023C35.9029 32.3016 37.3313 30.164 38.3056 27.8114Z" fill="white"/>
<path d="M1 20.3908C1 22.9373 1.50156 25.4588 2.47604 27.8114C3.45053 30.164 4.87884 32.3016 6.67945 34.1022C8.48005 35.9027 10.6177 37.3311 12.9703 38.3056C15.3229 39.2801 17.8444 39.7816 20.3909 39.7816C22.9373 39.7816 25.4588 39.2801 27.8114 38.3056C30.164 37.3311 32.3016 35.9027 34.1023 34.1022C35.9029 32.3016 37.3311 30.164 38.3056 27.8114C39.2801 25.4588 39.7818 22.9373 39.7818 20.3908H33.722C31.714 20.3908 30.148 22.0735 29.4125 23.9419C29.3916 23.9951 29.3701 24.0481 29.3483 24.1011C28.861 25.2774 28.1469 26.3463 27.2465 27.2465C26.3463 28.1468 25.2774 28.861 24.1011 29.3483C22.9249 29.8355 21.6641 30.0862 20.3909 30.0862C19.1176 30.0862 17.8569 29.8355 16.6806 29.3483C15.5043 28.861 14.4355 28.1468 13.5351 27.2465C12.6348 26.3463 11.9207 25.2774 11.4334 24.1011C10.9462 22.9248 10.6954 21.664 10.6954 20.3908H1Z" fill="#0551F3"/>
<path d="M1.00189 20.3909C1.00189 9.68155 9.68345 1 20.3927 1C22.0694 1 23.6964 1.21281 25.2483 1.6129C21.9184 2.47071 18.8467 4.20669 16.3738 6.67946C12.7373 10.3159 10.6944 15.2481 10.6944 20.3909H1.00189Z" fill="#0551F3"/>
</g>
<defs>
<clipPath id="clip0_3_39">
<rect width="200" height="40" fill="white"/>
</clipPath>
</defs>
</svg>
